<?xml version="1.0" encoding="utf-8"?>
<svg width="800px" height="800px" viewBox="0 0 48 48" xmlns="http://www.w3.org/2000/svg">
  <defs><linearGradient id="rainbow" gradientUnits="userSpaceOnUse" x1="0" y1="0" x2="48" y2="0">
    <stop offset="0%"    stop-color="#ff0040"/>
    <stop offset="16.6%" stop-color="#ff8000"/>
    <stop offset="33.3%" stop-color="#ffcc00"/>
    <stop offset="50%"   stop-color="#00e85a"/>
    <stop offset="66.6%" stop-color="#0090ff"/>
    <stop offset="83.3%" stop-color="#8c3fff"/>
    <stop offset="100%"  stop-color="#ff2eaa"/>
  </linearGradient>
  <style>.a{fill:none;stroke:url(#rainbow);stroke-linecap:round;stroke-linejoin:round;}</style></defs>
  <path class="a" d="M24,3.38,30.23,9.6h7.82v8.66L43.82,24l-5.65,5.65v8.85H29.92l-5.85,5.85-5.56-5.56H10v-8.7L4.07,24.24l6.1-6.1V9.73h7.9Z"/>
  <circle class="a" cx="24" cy="24" r="5.5"/>
  <line class="a" x1="24" y1="13" x2="24" y2="16"/>
  <line class="a" x1="24" y1="32" x2="24" y2="35"/>
  <line class="a" x1="13" y1="24" x2="16" y2="24"/>
  <line class="a" x1="32" y1="24" x2="35" y2="24"/>
  <line class="a" x1="16.22" y1="16.22" x2="18.34" y2="18.34"/>
  <line class="a" x1="29.66" y1="29.66" x2="31.78" y2="31.78"/>
  <line class="a" x1="31.78" y1="16.22" x2="29.66" y2="18.34"/>
  <line class="a" x1="18.34" y1="29.66" x2="16.22" y2="31.78"/>
</svg>