<?xml version="1.0" encoding="UTF-8"?>
<svg id="Layer_2" data-name="Layer 2" xmlns="http://www.w3.org/2000/svg" viewBox="0 0 70.87 71.03">
  <defs>
    <style>
      .cls-1 { stroke-width: 0px; fill: #ffffff; }
    </style>
  </defs>
  <g id="Layer_2-2" data-name="Layer 2">
    <g>
      <g>
        <path class="cls-1" d="m47.01,0H5.51s.01.01.01.01h.01s3.17,5.13,3.17,5.13h0s5.13,8.28,5.13,8.28h33.18c7.36,0,10.76,2,10.76,6.43v.07c0,4.44-3.4,6.37-10.76,6.37v13.39c8.88,0,14.85-1.97,18.6-5.43s5.26-8.4,5.26-14.33v-.07c0-11.92-6.09-19.85-23.86-19.85Z"/>
        <polygon class="cls-1" points="65.93 71.03 49.6 71.03 40.95 57.09 38.43 53.05 30.15 39.72 21.84 26.31 13.84 13.44 13.83 13.43 13.83 13.42 8.7 5.15 8.7 5.14 5.51 .02 20.87 .02 29.37 13.42 29.39 13.44 54.52 53.05 57.08 57.09 65.93 71.03"/>
      </g>
      <path class="cls-1" d="m57.08,57.09H14.96v-28.58L0,4.26v66.76h65.93l-8.85-13.94Z"/>
    </g>
  </g>
</svg>
