<?xml version="1.0" encoding="UTF-8"?>
<svg id="Layer_2" data-name="Layer 2" xmlns="http://www.w3.org/2000/svg" viewBox="0 0 657.94 95.18">
  <defs>
    <style>
      .cls-1 {
        stroke-width: 0px;
      }
    </style>
  </defs>
  <g id="Layer_2-2" data-name="Layer 2">
    <g>
      <g>
        <path class="cls-1" d="m12.13,57.79v-31.72H0v43.03h49.81v-11.31H12.13Z"/>
        <path class="cls-1" d="m103.15,26.07v22.46c0,7.08-4.35,9.95-10.26,9.95h-14.98c-5.97,0-10.26-2.87-10.26-9.95v-22.46h-12.13v22.46c0,14.11,8.46,20.95,22.39,20.95h14.98c13.93,0,22.39-6.84,22.39-20.95v-22.46h-12.13Z"/>
        <path class="cls-1" d="m179.82,26.07l-22.32,22.76-22.33-22.76h-11.25v43.03h11.94v-26.17l18.84,19.22h5.59l18.84-19.22v26.17h11.94V26.07h-11.25Z"/>
        <path class="cls-1" d="m252.13,36.47v-10.4h-51.24v43.03h51.24v-10.44h-39.42v-5.97h35.07v-10.19h-35.07v-6.03h39.42Z"/>
        <path class="cls-1" d="m308.28,54.68c6.03-2.42,8.51-7.21,8.51-13.24v-.06c0-8.89-5.28-15.31-19.4-15.31h-25.05v10.51h25.05c5.29,0,7.59,1.32,7.59,4.8v.06c0,3.66-2.3,4.9-7.59,4.9h-25.05v-9.76h-11.82v32.52h11.82v-12.67h24.37l7.84,12.67h13.3l-9.57-14.42Z"/>
        <path class="cls-1" d="m456.94,26.07v43.03h12.13V26.07h-12.13Z"/>
        <path class="cls-1" d="m514.77,47.66l21.01-21.59h-15.98l-14.17,15.06-14.12-15.06h-15.98l20.96,21.59-21.27,21.44h15.98l14.43-15.16,14.55,15.16h15.91l-21.32-21.44Z"/>
        <path class="cls-1" d="m593.61,36.47v-10.4h-51.24v43.03h51.24v-10.44h-39.42v-5.97h35.06v-10.19h-35.06v-6.03h39.42Z"/>
        <path class="cls-1" d="m614.13,57.79v-31.72h-12.13v43.03h43.88v-11.31h-31.75Z"/>
        <polygon class="cls-1" points="360.38 26.08 387.68 69.1 374.63 69.1 354.35 36.45 334.08 69.1 321.02 69.1 348.32 26.08 360.38 26.08"/>
        <path class="cls-1" d="m430.02,26.07h-61.25s0,.01,0,.01l2.58,4.16,4.16,6.72h54.5c5.97,0,8.14,1.61,8.14,5.22v.06c0,3.6-2.17,5.17-8.14,5.17h-21.11l-6.89,10.87h28c14.42,0,19.95-6.4,19.95-16.04v-.06c0-9.7-5.53-16.11-19.95-16.11Z"/>
        <polygon class="cls-1" points="425.09 95.18 411.69 95.18 395.49 69.1 388.77 58.29 382.02 47.41 375.53 36.96 368.77 26.08 381.24 26.08 388.15 36.96 408.55 69.1 425.09 95.18"/>
        <polygon class="cls-1" points="387.64 69.1 374.65 69.1 331.32 0 343.79 0 387.64 69.1"/>
      </g>
      <path class="cls-1" d="m630.28,14.69v11.32h15.54v15.55h12.12V14.69h-27.66Z"/>
    </g>
  </g>
</svg>